<svg xmlns="http://www.w3.org/2000/svg" width="145.2457117353167" height="64.8" viewBox="0 0 145.2457117353167 64.8" class="css-1j8o68f"><defs id="SvgjsDefs1326"></defs><g id="SvgjsG1327" featurekey="symbolFeature-0" transform="matrix(0.6882414801866521,0,0,0.6882414801866521,-6.354533450040848,-2.0124181051310845)" fill="#ffffff"><polygon xmlns="http://www.w3.org/2000/svg" points="90.767,50.001 50.003,73.536 9.233,97.077 9.233,50.001 9.233,2.924 50.003,26.46 "></polygon></g><g id="SvgjsG1328" featurekey="nameLeftFeature-0" transform="matrix(2.5714285714285716,0,0,2.5714285714285716,72.9142837524414,-0.4285714285714306)" fill="#ffffff"><path d="M16.2 6 l0 14 l-3 0 l0 -7.44 l-3.26 7.44 l-2.52 0 l-3.22 -7.4 l0 7.4 l-3 0 l0 -14 l2.88 0 l4.62 10.1 l4.62 -10.1 l2.88 0 z"></path></g><g id="SvgjsG1329" featurekey="nameRightFeature-0" transform="matrix(2.5714285714285716,0,0,2.5714285714285716,119.94285542624337,-0.4285714285714306)" fill="#ffffff"><path d="M9.84 6 l0 0.58 l-4.22 0 l0 13.42 l-0.58 0 l0 -13.42 l-4.24 0 l0 -0.58 l9.04 0 z"></path></g></svg>